<svg aria-hidden="true" style="position: absolute; width: 0; height: 0; overflow: hidden;" version="1.1" xmlns="http://www.w3.org/2000/svg" xmlns:xlink="http://www.w3.org/1999/xlink">
<defs>
<symbol id="icon-close" viewBox="0 0 32 32">
<path stroke-linejoin="miter" stroke-linecap="butt" stroke-miterlimit="4" stroke-width="2.1333" d="M8.533 8.533l14.933 14.933"></path>
<path stroke-linejoin="miter" stroke-linecap="butt" stroke-miterlimit="4" stroke-width="2.1333" d="M8.533 23.467l14.933-14.933"></path>
</symbol>
<symbol id="icon-film" viewBox="0 0 32 32">
<path fill="none" stroke-linejoin="round" stroke-linecap="round" stroke-miterlimit="4" stroke-width="2.6667" d="M26.427 2.667h-20.853c-1.605 0-2.907 1.301-2.907 2.907v20.853c0 1.605 1.301 2.907 2.907 2.907h20.853c1.605 0 2.907-1.301 2.907-2.907v-20.853c0-1.605-1.301-2.907-2.907-2.907z"></path>
<path fill="none" stroke-linejoin="round" stroke-linecap="round" stroke-miterlimit="4" stroke-width="2.6667" d="M9.333 2.667v26.667"></path>
<path fill="none" stroke-linejoin="round" stroke-linecap="round" stroke-miterlimit="4" stroke-width="2.6667" d="M22.667 2.667v26.667"></path>
<path fill="none" stroke-linejoin="round" stroke-linecap="round" stroke-miterlimit="4" stroke-width="2.6667" d="M2.667 16h26.667"></path>
<path fill="none" stroke-linejoin="round" stroke-linecap="round" stroke-miterlimit="4" stroke-width="2.6667" d="M2.667 9.333h6.667"></path>
<path fill="none" stroke-linejoin="round" stroke-linecap="round" stroke-miterlimit="4" stroke-width="2.6667" d="M2.667 22.667h6.667"></path>
<path fill="none" stroke-linejoin="round" stroke-linecap="round" stroke-miterlimit="4" stroke-width="2.6667" d="M22.667 22.667h6.667"></path>
<path fill="none" stroke-linejoin="round" stroke-linecap="round" stroke-miterlimit="4" stroke-width="2.6667" d="M22.667 9.333h6.667"></path>
</symbol>
<symbol id="icon-left" viewBox="0 0 32 32">
<path fill="#f7f7f7" style="fill: var(--color2, #f7f7f7)" d="M4 0h24c2.209 0 4 1.791 4 4v24c0 2.209-1.791 4-4 4h-24c-2.209 0-4-1.791-4-4v-24c0-2.209 1.791-4 4-4z"></path>
<path fill="none" stroke="#000" style="stroke: var(--color3, #000)" stroke-linejoin="round" stroke-linecap="round" stroke-miterlimit="4" stroke-width="1.0667" d="M19.733 16h-7.467"></path>
<path fill="none" stroke="#000" style="stroke: var(--color3, #000)" stroke-linejoin="round" stroke-linecap="round" stroke-miterlimit="4" stroke-width="1.0667" d="M16 19.733l-3.733-3.733 3.733-3.733"></path>
</symbol>
<symbol id="icon-love" viewBox="0 0 32 32">
<path fill="#ff6b08" style="fill: var(--color4, #ff6b08)" d="M16 30.583l-2.24-2.24c-8.32-7.36-13.76-12.32-13.76-18.4 0-4.96 3.84-8.8 8.8-8.8 2.72 0 5.44 1.28 7.2 3.36 1.76-2.080 4.48-3.36 7.2-3.36 4.96 0 8.8 3.84 8.8 8.8 0 6.080-5.44 11.040-13.76 18.4l-2.24 2.24z"></path>
</symbol>
<symbol id="icon-pages_number" viewBox="0 0 32 32">
<path fill="#ff6b08" style="fill: var(--color4, #ff6b08)" d="M4 0h24c2.209 0 4 1.791 4 4v24c0 2.209-1.791 4-4 4h-24c-2.209 0-4-1.791-4-4v-24c0-2.209 1.791-4 4-4z"></path>
</symbol>
<symbol id="icon-right" viewBox="0 0 32 32">
<path fill="#f7f7f7" style="fill: var(--color2, #f7f7f7)" d="M28 0h-24c-2.209 0-4 1.791-4 4v24c0 2.209 1.791 4 4 4h24c2.209 0 4-1.791 4-4v-24c0-2.209-1.791-4-4-4z"></path>
<path fill="none" stroke="#000" style="stroke: var(--color3, #000)" stroke-linejoin="round" stroke-linecap="round" stroke-miterlimit="4" stroke-width="1.0667" d="M12.267 16h7.467"></path>
<path fill="none" stroke="#000" style="stroke: var(--color3, #000)" stroke-linejoin="round" stroke-linecap="round" stroke-miterlimit="4" stroke-width="1.0667" d="M16 19.733l3.733-3.733-3.733-3.733"></path>
</symbol>
<symbol id="icon-search" viewBox="0 0 32 32">
<path fill="none" stroke-linejoin="round" stroke-linecap="round" stroke-miterlimit="4" stroke-width="2.6667" d="M14.667 25.333c5.891 0 10.667-4.776 10.667-10.667s-4.776-10.667-10.667-10.667c-5.891 0-10.667 4.776-10.667 10.667s4.776 10.667 10.667 10.667z"></path>
<path fill="none" stroke-linejoin="round" stroke-linecap="round" stroke-miterlimit="4" stroke-width="2.6667" d="M28 28.001l-5.8-5.8"></path>
</symbol>

 <symbol id="icon-sun" viewBox="0 0 32 32">
<path d="M16 5c0.553 0 1-0.447 1-1v-2c0-0.553-0.447-1-1-1s-1 0.447-1 1v2c0 0.553 0.447 1 1 1zM16 27c-0.553 0-1 0.447-1 1v2c0 0.553 0.447 1 1 1s1-0.447 1-1v-2c0-0.553-0.447-1-1-1zM30 15h-2c-0.553 0-1 0.447-1 1s0.447 1 1 1h2c0.553 0 1-0.447 1-1s-0.447-1-1-1zM4 15h-2c-0.553 0-1 0.447-1 1s0.447 1 1 1h2c0.553 0 1-0.447 1-1s-0.447-1-1-1zM25.192 5.394l-1.414 1.414c-0.391 0.391-0.391 1.024 0 1.414s1.023 0.391 1.414 0l1.414-1.414c0.391-0.391 0.391-1.024 0-1.414s-1.023-0.391-1.414 0zM6.808 23.778l-1.414 1.414c-0.391 0.391-0.391 1.023 0 1.414s1.024 0.391 1.414 0l1.414-1.414c0.391-0.391 0.391-1.023 0-1.414s-1.023-0.39-1.414 0zM6.808 8.222c0.391 0.391 1.024 0.391 1.414 0s0.391-1.024 0-1.414l-1.414-1.414c-0.391-0.391-1.024-0.391-1.414 0s-0.391 1.024 0 1.414l1.414 1.414zM25.192 23.778c-0.391-0.391-1.023-0.391-1.414 0s-0.391 1.023 0 1.414l1.414 1.414c0.391 0.391 1.023 0.391 1.414 0s0.391-1.023 0-1.414l-1.414-1.414zM16 7c-4.971 0-9 4.029-9 9s4.029 9 9 9 9-4.029 9-9-4.029-9-9-9zM16 23c-3.86 0-7-3.141-7-7s3.141-7 7-7 7 3.141 7 7-3.14 7-7 7z"></path>
</symbol>

<symbol id="icon-moon_icon" viewBox="0 0 32 32">
<path  d="M21.573 24.118c2.205 0 4.253-0.672 5.952-1.82-2.155 3.643-6.125 6.087-10.667 6.087-6.84 0-12.383-5.545-12.383-12.385s5.545-12.383 12.383-12.383c0.237 0 0.472 0.007 0.703 0.020-3.883 1.583-6.622 5.397-6.622 9.85 0.002 5.87 4.762 10.632 10.633 10.632z"></path>
<path stroke-linejoin="round" stroke-linecap="round" stroke-miterlimit="10" stroke-width="0.8333" d="M21.573 24.118c-5.872 0-10.632-4.76-10.632-10.632 0-4.453 2.737-8.267 6.622-9.85-0.233-0.013-0.468-0.020-0.703-0.020-6.84 0-12.383 5.545-12.383 12.383s5.545 12.385 12.383 12.385c4.54 0 8.51-2.443 10.667-6.087-1.7 1.148-3.748 1.82-5.953 1.82z"></path>
</symbol>
<symbol id="icon-github1" viewBox="0 0 32 32">
<path d="M16 0.396c-8.84 0-16 7.164-16 16 0 7.071 4.584 13.067 10.94 15.18 0.8 0.151 1.093-0.344 1.093-0.769 0-0.38-0.013-1.387-0.020-2.72-4.451 0.965-5.389-2.147-5.389-2.147-0.728-1.847-1.78-2.34-1.78-2.34-1.449-0.992 0.112-0.972 0.112-0.972 1.607 0.112 2.451 1.648 2.451 1.648 1.427 2.447 3.745 1.74 4.66 1.331 0.144-1.035 0.556-1.74 1.013-2.14-3.553-0.4-7.288-1.776-7.288-7.907 0-1.747 0.62-3.173 1.647-4.293-0.18-0.404-0.72-2.031 0.14-4.235 0 0 1.34-0.429 4.4 1.64 1.28-0.356 2.64-0.532 4-0.54 1.36 0.008 2.72 0.184 4 0.54 3.040-2.069 4.38-1.64 4.38-1.64 0.86 2.204 0.32 3.831 0.16 4.235 1.020 1.12 1.64 2.547 1.64 4.293 0 6.147-3.74 7.5-7.3 7.893 0.56 0.48 1.080 1.461 1.080 2.96 0 2.141-0.020 3.861-0.020 4.381 0 0.42 0.28 0.92 1.1 0.76 6.401-2.099 10.981-8.099 10.981-15.159 0-8.836-7.164-16-16-16z"></path>
</symbol>
<symbol id="icon-github" viewBox="0 0 32 32">
<path d="M16 0c-8.837 0-16 7.163-16 16s7.163 16 16 16v0c8.837 0 16-7.163 16-16s-7.163-16-16-16v0zM20.217 29.044h-0.124c-0.012 0.001-0.025 0.001-0.039 0.001-0.183 0-0.348-0.072-0.471-0.188l0 0c-0.116-0.122-0.187-0.288-0.187-0.47 0-0.009 0-0.018 0.001-0.027l-0 0.001v-1.875c0.008-0.623 0.013-1.253 0.013-1.888-0.002-0.489-0.076-0.961-0.21-1.406l0.009 0.035c-0.131-0.466-0.384-0.861-0.72-1.165l-0.002-0.002c1.003-0.099 1.924-0.321 2.791-0.653l-0.073 0.025c0.766-0.296 1.418-0.733 1.953-1.284l0.001-0.001c0.543-0.569 0.947-1.257 1.18-2.008 0.255-0.796 0.402-1.713 0.402-2.663 0-0.062-0.001-0.124-0.002-0.186l0 0.009c0-0.013 0-0.028 0-0.043 0-0.691-0.127-1.353-0.36-1.963l0.013 0.038c-0.253-0.663-0.612-1.232-1.063-1.715l0.003 0.003c0.092-0.223 0.167-0.483 0.213-0.754l0.003-0.022c0.044-0.267 0.067-0.536 0.067-0.805 0-0.347-0.040-0.693-0.12-1.031-0.084-0.397-0.186-0.737-0.311-1.066l0.016 0.049c-0.042-0.017-0.091-0.027-0.142-0.027-0.002 0-0.004 0-0.006 0h-0.146c-0.307 0.003-0.608 0.053-0.899 0.148-0.371 0.109-0.682 0.227-0.982 0.365l0.044-0.018c-0.352 0.158-0.642 0.311-0.92 0.479l0.039-0.022c-0.287 0.169-0.54 0.332-0.764 0.483-1.028-0.298-2.208-0.469-3.429-0.469s-2.401 0.171-3.519 0.491l0.090-0.022c-0.181-0.125-0.43-0.284-0.683-0.438l-0.080-0.045c-0.246-0.149-0.541-0.302-0.845-0.436l-0.051-0.020c-0.262-0.127-0.574-0.245-0.898-0.338l-0.042-0.010c-0.263-0.090-0.566-0.144-0.881-0.148l-0.002-0h-0.147c-0.002-0-0.004-0-0.005-0-0.051 0-0.099 0.010-0.144 0.028l0.003-0.001c-0.109 0.276-0.214 0.616-0.296 0.965l-0.010 0.053c-0.072 0.339-0.107 0.684-0.108 1.031 0 0.269 0.023 0.539 0.068 0.805 0.044 0.265 0.115 0.525 0.213 0.776-0.446 0.48-0.805 1.050-1.044 1.678l-0.012 0.036c-0.222 0.575-0.351 1.241-0.351 1.937 0 0.011 0 0.022 0 0.033v-0.002c-0.001 0.053-0.002 0.116-0.002 0.179 0 0.945 0.143 1.856 0.408 2.713l-0.017-0.065c0.241 0.751 0.644 1.44 1.179 2.021 0.553 0.563 1.22 1 1.955 1.285 0.871 0.333 1.783 0.547 2.711 0.635-0.254 0.231-0.458 0.512-0.597 0.828l-0.006 0.016c-0.123 0.288-0.216 0.622-0.264 0.971l-0.002 0.021c-0.458 0.224-0.997 0.357-1.566 0.36h-0.001c-0.028 0.001-0.062 0.002-0.095 0.002-0.494 0-0.953-0.15-1.333-0.407l0.008 0.005c-0.402-0.3-0.736-0.665-0.993-1.082l-0.010-0.017c-0.125-0.191-0.253-0.358-0.393-0.513l0.003 0.004c-0.15-0.167-0.313-0.317-0.487-0.451l-0.009-0.006c-0.166-0.125-0.356-0.233-0.559-0.314l-0.017-0.006c-0.189-0.085-0.409-0.134-0.641-0.135h-0c-0.053 0.001-0.107 0.007-0.16 0.013-0.001 0-0.002 0-0.003 0-0.076 0-0.149 0.010-0.219 0.028l0.006-0.001c-0.066 0.018-0.124 0.045-0.175 0.081l0.002-0.001c-0.047 0.027-0.079 0.076-0.080 0.133v0c0.012 0.134 0.082 0.249 0.185 0.322l0.001 0.001c0.124 0.099 0.227 0.175 0.309 0.228l0.040 0.028c0.177 0.137 0.348 0.285 0.509 0.444 0.149 0.131 0.284 0.279 0.4 0.44 0.12 0.159 0.224 0.328 0.308 0.508 0.097 0.179 0.2 0.384 0.308 0.617 0.251 0.632 0.696 1.167 1.272 1.527 0.604 0.324 1.281 0.485 1.968 0.468 0.232 0 0.465-0.013 0.696-0.040 0.229-0.037 0.457-0.076 0.687-0.121v2.324c0 0.009 0.001 0.019 0.001 0.029 0 0.368-0.298 0.667-0.667 0.667-0.016 0-0.031-0.001-0.047-0.002l0.002 0h-0.083c-5.558-1.836-9.499-6.983-9.499-13.051 0-7.574 6.14-13.715 13.715-13.715s13.715 6.14 13.715 13.715c0 6.068-3.94 11.215-9.402 13.023l-0.097 0.028v0.007z"></path>
</symbol>

</defs>
</svg>
