<svg aria-hidden="true" style="position: absolute; width: 0; height: 0; overflow: hidden;" version="1.1" xmlns="http://www.w3.org/2000/svg" xmlns:xlink="http://www.w3.org/1999/xlink">
<defs>
<symbol id="icon-close" viewBox="0 0 32 32">
<path stroke-linejoin="miter" stroke-linecap="butt" stroke-miterlimit="4" stroke-width="2.1333" d="M8.533 8.533l14.933 14.933"></path>
<path stroke-linejoin="miter" stroke-linecap="butt" stroke-miterlimit="4" stroke-width="2.1333" d="M8.533 23.467l14.933-14.933"></path>
</symbol>
<symbol id="icon-film" viewBox="0 0 32 32">
<path fill="none" stroke="#818181" style="stroke: var(--color1, #818181)" stroke-linejoin="round" stroke-linecap="round" stroke-miterlimit="4" stroke-width="2.6667" d="M26.427 2.667h-20.853c-1.605 0-2.907 1.301-2.907 2.907v20.853c0 1.605 1.301 2.907 2.907 2.907h20.853c1.605 0 2.907-1.301 2.907-2.907v-20.853c0-1.605-1.301-2.907-2.907-2.907z"></path>
<path fill="none" stroke="#818181" style="stroke: var(--color1, #818181)" stroke-linejoin="round" stroke-linecap="round" stroke-miterlimit="4" stroke-width="2.6667" d="M9.333 2.667v26.667"></path>
<path fill="none" stroke="#818181" style="stroke: var(--color1, #818181)" stroke-linejoin="round" stroke-linecap="round" stroke-miterlimit="4" stroke-width="2.6667" d="M22.667 2.667v26.667"></path>
<path fill="none" stroke="#818181" style="stroke: var(--color1, #818181)" stroke-linejoin="round" stroke-linecap="round" stroke-miterlimit="4" stroke-width="2.6667" d="M2.667 16h26.667"></path>
<path fill="none" stroke="#818181" style="stroke: var(--color1, #818181)" stroke-linejoin="round" stroke-linecap="round" stroke-miterlimit="4" stroke-width="2.6667" d="M2.667 9.333h6.667"></path>
<path fill="none" stroke="#818181" style="stroke: var(--color1, #818181)" stroke-linejoin="round" stroke-linecap="round" stroke-miterlimit="4" stroke-width="2.6667" d="M2.667 22.667h6.667"></path>
<path fill="none" stroke="#818181" style="stroke: var(--color1, #818181)" stroke-linejoin="round" stroke-linecap="round" stroke-miterlimit="4" stroke-width="2.6667" d="M22.667 22.667h6.667"></path>
<path fill="none" stroke="#818181" style="stroke: var(--color1, #818181)" stroke-linejoin="round" stroke-linecap="round" stroke-miterlimit="4" stroke-width="2.6667" d="M22.667 9.333h6.667"></path>
</symbol>
<symbol id="icon-left" viewBox="0 0 32 32">
<path fill="#f7f7f7" style="fill: var(--color2, #f7f7f7)" d="M4 0h24c2.209 0 4 1.791 4 4v24c0 2.209-1.791 4-4 4h-24c-2.209 0-4-1.791-4-4v-24c0-2.209 1.791-4 4-4z"></path>
<path fill="none" stroke="#000" style="stroke: var(--color3, #000)" stroke-linejoin="round" stroke-linecap="round" stroke-miterlimit="4" stroke-width="1.0667" d="M19.733 16h-7.467"></path>
<path fill="none" stroke="#000" style="stroke: var(--color3, #000)" stroke-linejoin="round" stroke-linecap="round" stroke-miterlimit="4" stroke-width="1.0667" d="M16 19.733l-3.733-3.733 3.733-3.733"></path>
</symbol>
<symbol id="icon-love" viewBox="0 0 32 32">
<path fill="#ff6b08" style="fill: var(--color4, #ff6b08)" d="M16 30.583l-2.24-2.24c-8.32-7.36-13.76-12.32-13.76-18.4 0-4.96 3.84-8.8 8.8-8.8 2.72 0 5.44 1.28 7.2 3.36 1.76-2.080 4.48-3.36 7.2-3.36 4.96 0 8.8 3.84 8.8 8.8 0 6.080-5.44 11.040-13.76 18.4l-2.24 2.24z"></path>
</symbol>
<symbol id="icon-pages_number" viewBox="0 0 32 32">
<path fill="#ff6b08" style="fill: var(--color4, #ff6b08)" d="M4 0h24c2.209 0 4 1.791 4 4v24c0 2.209-1.791 4-4 4h-24c-2.209 0-4-1.791-4-4v-24c0-2.209 1.791-4 4-4z"></path>
</symbol>
<symbol id="icon-right" viewBox="0 0 32 32">
<path fill="#f7f7f7" style="fill: var(--color2, #f7f7f7)" d="M28 0h-24c-2.209 0-4 1.791-4 4v24c0 2.209 1.791 4 4 4h24c2.209 0 4-1.791 4-4v-24c0-2.209-1.791-4-4-4z"></path>
<path fill="none" stroke="#000" style="stroke: var(--color3, #000)" stroke-linejoin="round" stroke-linecap="round" stroke-miterlimit="4" stroke-width="1.0667" d="M12.267 16h7.467"></path>
<path fill="none" stroke="#000" style="stroke: var(--color3, #000)" stroke-linejoin="round" stroke-linecap="round" stroke-miterlimit="4" stroke-width="1.0667" d="M16 19.733l3.733-3.733-3.733-3.733"></path>
</symbol>
<symbol id="icon-search" viewBox="0 0 32 32">
<path fill="none" stroke="#fff" style="stroke: var(--color5, #fff)" stroke-linejoin="round" stroke-linecap="round" stroke-miterlimit="4" stroke-width="2.6667" d="M14.667 25.333c5.891 0 10.667-4.776 10.667-10.667s-4.776-10.667-10.667-10.667c-5.891 0-10.667 4.776-10.667 10.667s4.776 10.667 10.667 10.667z"></path>
<path fill="none" stroke="#fff" style="stroke: var(--color5, #fff)" stroke-linejoin="round" stroke-linecap="round" stroke-miterlimit="4" stroke-width="2.6667" d="M28 28.001l-5.8-5.8"></path>
</symbol>

 <symbol id="icon-sun" viewBox="0 0 32 32">
<path d="M16 5c0.553 0 1-0.447 1-1v-2c0-0.553-0.447-1-1-1s-1 0.447-1 1v2c0 0.553 0.447 1 1 1zM16 27c-0.553 0-1 0.447-1 1v2c0 0.553 0.447 1 1 1s1-0.447 1-1v-2c0-0.553-0.447-1-1-1zM30 15h-2c-0.553 0-1 0.447-1 1s0.447 1 1 1h2c0.553 0 1-0.447 1-1s-0.447-1-1-1zM4 15h-2c-0.553 0-1 0.447-1 1s0.447 1 1 1h2c0.553 0 1-0.447 1-1s-0.447-1-1-1zM25.192 5.394l-1.414 1.414c-0.391 0.391-0.391 1.024 0 1.414s1.023 0.391 1.414 0l1.414-1.414c0.391-0.391 0.391-1.024 0-1.414s-1.023-0.391-1.414 0zM6.808 23.778l-1.414 1.414c-0.391 0.391-0.391 1.023 0 1.414s1.024 0.391 1.414 0l1.414-1.414c0.391-0.391 0.391-1.023 0-1.414s-1.023-0.39-1.414 0zM6.808 8.222c0.391 0.391 1.024 0.391 1.414 0s0.391-1.024 0-1.414l-1.414-1.414c-0.391-0.391-1.024-0.391-1.414 0s-0.391 1.024 0 1.414l1.414 1.414zM25.192 23.778c-0.391-0.391-1.023-0.391-1.414 0s-0.391 1.023 0 1.414l1.414 1.414c0.391 0.391 1.023 0.391 1.414 0s0.391-1.023 0-1.414l-1.414-1.414zM16 7c-4.971 0-9 4.029-9 9s4.029 9 9 9 9-4.029 9-9-4.029-9-9-9zM16 23c-3.86 0-7-3.141-7-7s3.141-7 7-7 7 3.141 7 7-3.14 7-7 7z"></path>
</symbol>

<symbol id="icon-moon_icon" viewBox="0 0 32 32">
<path  d="M21.573 24.118c2.205 0 4.253-0.672 5.952-1.82-2.155 3.643-6.125 6.087-10.667 6.087-6.84 0-12.383-5.545-12.383-12.385s5.545-12.383 12.383-12.383c0.237 0 0.472 0.007 0.703 0.020-3.883 1.583-6.622 5.397-6.622 9.85 0.002 5.87 4.762 10.632 10.633 10.632z"></path>
<path stroke-linejoin="round" stroke-linecap="round" stroke-miterlimit="10" stroke-width="0.8333" d="M21.573 24.118c-5.872 0-10.632-4.76-10.632-10.632 0-4.453 2.737-8.267 6.622-9.85-0.233-0.013-0.468-0.020-0.703-0.020-6.84 0-12.383 5.545-12.383 12.383s5.545 12.385 12.383 12.385c4.54 0 8.51-2.443 10.667-6.087-1.7 1.148-3.748 1.82-5.953 1.82z"></path>
</symbol>

</defs>
</svg>
